<svg aria-hidden="true" style="position: absolute; width: 0; height: 0; overflow: hidden;" version="1.1" xmlns="http://www.w3.org/2000/svg" xmlns:xlink="http://www.w3.org/1999/xlink">
    <defs>
        <!-- круг в герое для псевдоэлемента -->
        <symbol id="ellipse" viewBox="0 0 32 32">
            <path d="M32 16c0 8.837-7.163 16-16 16s-16-7.163-16-16c0-8.837 7.163-16 16-16s16 7.163 16 16z"></path>
        </symbol>


        <!-- трое-точие в карточках -->
        <symbol id="three-points" viewBox="0 0 139 32">
            <path d="M85.333 16c0 8.837-7.163 16-16 16s-16-7.163-16-16c0-8.837 7.163-16 16-16s16 7.163 16 16z"></path>
            <path d="M32 16c0 8.837-7.163 16-16 16s-16-7.163-16-16c0-8.837 7.163-16 16-16s16 7.163 16 16z"></path>
            <path d="M138.667 16c0 8.837-7.163 16-16 16s-16-7.163-16-16c0-8.837 7.163-16 16-16s16 7.163 16 16z"></path>
        </symbol>

        <!-- соцсети -->
        <symbol id="github" viewBox="0 0 32 32">
            <path d="M32 16c0 8.837-7.163 16-16 16s-16-7.163-16-16c0-8.837 7.163-16 16-16s16 7.163 16 16z"></path>
            <path d="M16 6.588c-5.169 0-9.412 4.242-9.412 9.412 0 4.411 3.095 8.419 7.206 9.412v-3.114c-0.407 0.089-0.782 0.092-1.197-0.030-0.556-0.164-1.008-0.535-1.344-1.1-0.214-0.361-0.593-0.752-0.988-0.723l-0.097-1.099c0.855-0.073 1.595 0.521 2.034 1.259 0.195 0.328 0.419 0.52 0.708 0.605 0.278 0.082 0.578 0.043 0.926-0.080 0.088-0.698 0.407-0.959 0.648-1.326v-0.001c-2.451-0.366-3.428-1.666-3.816-2.693-0.514-1.363-0.238-3.066 0.671-4.142 0.018-0.021 0.050-0.076 0.037-0.114-0.417-1.258 0.091-2.299 0.11-2.41 0.481 0.142 0.559-0.143 2.089 0.786l0.264 0.159c0.111 0.066 0.076 0.028 0.186 0.020 0.639-0.173 1.312-0.269 1.975-0.278 0.668 0.009 1.337 0.104 2.002 0.285l0.086 0.009c-0.007-0.001 0.023-0.005 0.075-0.036 1.911-1.157 1.842-0.779 2.355-0.946 0.019 0.111 0.519 1.169 0.107 2.411-0.056 0.171 1.657 1.739 0.708 4.256-0.388 1.027-1.365 2.328-3.816 2.693v0.001c0.314 0.479 0.692 0.734 0.69 1.722v3.887c4.111-0.993 7.206-5 7.206-9.412 0-5.169-4.242-9.412-9.412-9.412v0z"></path>
        </symbol>

        <symbol id="telegram" viewBox="0 0 32 32">
            <path d="M32 16c0 8.837-7.163 16-16 16s-16-7.163-16-16c0-8.837 7.163-16 16-16s16 7.163 16 16z"></path>
            <path d="M12.867 18.375l-0.318 4.169c0.454 0 0.651-0.182 0.887-0.401l2.13-1.9 4.415 3.017c0.81 0.421 1.38 0.199 1.598-0.695l2.898-12.673c0.257-1.117-0.433-1.554-1.222-1.28l-17.032 6.086c-1.162 0.421-1.145 1.026-0.198 1.3l4.354 1.264 10.115-5.907c0.476-0.294 0.909-0.131 0.553 0.163l-8.182 6.857z"></path>
        </symbol>

        <symbol id="facebook" viewBox="0 0 32 32">
            <path d="M16 32c8.837 0 16-7.163 16-16s-7.163-16-16-16c-8.837 0-16 7.163-16 16s7.163 16 16 16z"></path>
            <path d="M20.446 15.982h-2.61v9.619h-3.955v-9.619h-1.881v-3.38h1.881v-2.187c0-1.564 0.739-4.014 3.99-4.014l2.929 0.012v3.281h-2.125c-0.349 0-0.839 0.175-0.839 0.921v1.989h2.955l-0.346 3.377z"></path>
        </symbol>


        <!-- иконка к главной слайдера -->
        <symbol id="home-slider" viewBox="0 0 35 32">
            <path d="M34.253 15.613c0.599-0.659 0.541-1.669-0.129-2.255l-14.772-12.926c-0.671-0.586-1.745-0.574-2.402 0.028l-14.822 13.587c-0.656 0.602-0.689 1.611-0.071 2.252l0.372 0.387c0.617 0.642 1.613 0.718 2.224 0.17l1.108-0.992v14.523c0 0.891 0.722 1.613 1.612 1.613h5.778c0.89 0 1.612-0.721 1.612-1.613v-10.16h7.37v10.16c-0.013 0.89 0.624 1.612 1.515 1.612h6.123c0.89 0 1.613-0.722 1.613-1.613v-14.318c0 0 0.306 0.268 0.683 0.6s1.168 0.066 1.767-0.594l0.42-0.462z"></path>
        </symbol>

        <!-- круг в слайдере отзыва -->
        <symbol id="ellipse-slider" viewBox="0 0 32 32">
            <path d="M32 16c0 8.837-7.163 16-16 16s-16-7.163-16-16c0-8.837 7.163-16 16-16s16 7.163 16 16z"></path>
        </symbol>

        <!-- стрелка слайдера и карточек -->
        <symbol id="arrow" viewBox="0 0 32 32">
            <path d="M20.735 16.721c-0.044 0.103-0.108 0.196-0.188 0.274l-3.676 3.565c-0.163 0.155-0.383 0.241-0.611 0.24s-0.447-0.090-0.608-0.246c-0.161-0.156-0.253-0.368-0.254-0.59s0.087-0.434 0.247-0.592l2.197-2.131h-6.575c-0.23 0-0.45-0.089-0.613-0.246s-0.254-0.371-0.254-0.594c0-0.223 0.091-0.437 0.254-0.594s0.383-0.246 0.613-0.246h6.575l-2.198-2.131c-0.16-0.158-0.248-0.371-0.247-0.592s0.092-0.433 0.254-0.59c0.161-0.157 0.38-0.245 0.608-0.246s0.448 0.085 0.611 0.24l3.676 3.565c0.121 0.118 0.204 0.267 0.237 0.43s0.017 0.332-0.049 0.486z"></path>
        </symbol>

        <!-- бургер для мобильного меню -->
        <symbol id="icon-burger" viewBox="0 0 46 32">
            <path fill="none" stroke="#d41443" stroke-linejoin="miter" stroke-linecap="butt" stroke-miterlimit="4" stroke-width="2.2857" d="M0 2.286h45.714"></path>
            <path fill="none" stroke="#d41443" stroke-linejoin="miter" stroke-linecap="butt" stroke-miterlimit="4" stroke-width="2.2857" d="M0 16h45.714"></path>
            <path fill="none" stroke="#d41443" stroke-linejoin="miter" stroke-linecap="butt" stroke-miterlimit="4" stroke-width="2.2857" d="M0 29.714h45.714"></path>
        </symbol>


        <!-- крестик для мобильного окна-->
        <symbol id="icon-close" viewBox="0 0 32 32">
            <path stroke="#fff" stroke-linejoin="miter" stroke-linecap="butt" stroke-miterlimit="4" stroke-width="2" d="M2.519 2l26.963 28"></path>
            <path stroke="#fff" stroke-linejoin="miter" stroke-linecap="butt" stroke-miterlimit="4" stroke-width="2" d="M2 29.481l28-26.963"></path>
        </symbol>


        <!-- стрелка для кнопок -->
        <symbol id="icon-arrow" viewBox="0 0 26 32">
            <path d="M2.798 1.055c1.185-1.311 3.208-1.414 4.52-0.229l14.169 12.8c0.672 0.607 1.055 1.469 1.055 2.375s-0.383 1.768-1.055 2.375l-14.169 12.8c-1.311 1.185-3.335 1.082-4.52-0.229s-1.082-3.335 0.229-4.52l11.54-10.425-11.54-10.425c-1.311-1.185-1.414-3.208-0.229-4.52z"></path>
        </symbol>

        <!-- facebook оптимизированный -->
        <symbol id="facebook-icon" viewBox="0 0 16 32">
            <path style="fill: var(--color1, #fff)" d="M14.143 15.972h-4.034v14.865h-6.112v-14.865h-2.907v-5.224h2.907v-3.381c0-2.418 1.142-6.203 6.166-6.203l4.527 0.019v5.071h-3.285c-0.539 0-1.296 0.271-1.296 1.424v3.075h4.567l-0.534 5.219z"></path>
        </symbol>

        <!-- git-hub оптимизированный -->
        <symbol id="git-hub-icon" viewBox="0 0 32 32">
            <path style="fill: var(--color1, #fff)" d="M16 0c-8.788 0-16 7.212-16 16 0 7.499 5.262 14.312 12.25 16v-5.293c-0.692 0.152-1.33 0.156-2.034-0.052-0.946-0.279-1.714-0.909-2.284-1.869-0.364-0.613-1.008-1.278-1.68-1.23l-0.165-1.868c1.453-0.124 2.711 0.886 3.457 2.14 0.332 0.558 0.713 0.884 1.203 1.029 0.473 0.14 0.982 0.072 1.574-0.137 0.149-1.186 0.692-1.63 1.102-2.255v-0.001c-4.167-0.622-5.828-2.832-6.488-4.578-0.874-2.317-0.405-5.212 1.14-7.041 0.030-0.036 0.084-0.129 0.063-0.194-0.708-2.139 0.155-3.909 0.187-4.097 0.817 0.242 0.95-0.243 3.551 1.337l0.449 0.27c0.188 0.112 0.129 0.048 0.317 0.034 1.086-0.295 2.23-0.458 3.358-0.472 1.136 0.015 2.273 0.178 3.404 0.484l0.145 0.015c-0.013-0.002 0.040-0.009 0.127-0.062 3.248-1.968 3.132-1.324 4.003-1.608 0.032 0.188 0.883 1.987 0.182 4.099-0.095 0.291 2.816 2.956 1.203 7.235-0.659 1.746-2.32 3.957-6.487 4.578v0.001c0.534 0.814 1.176 1.247 1.173 2.927v6.608c6.988-1.688 12.25-8.501 12.25-16 0-8.788-7.212-16-16-16v0z"></path>
        </symbol>

        <!-- telegram оптимизированный -->
        <symbol id="telegram-icon" viewBox="0 0 44 32">
            <path style="fill: var(--color1, #fff)" d="M17.343 21.048l-0.675 8.86c0.966 0 1.384-0.387 1.885-0.852l4.527-4.038 9.381 6.412c1.72 0.895 2.933 0.424 3.397-1.477l6.157-26.929 0.002-0.002c0.546-2.374-0.92-3.302-2.596-2.72l-36.194 12.933c-2.47 0.895-2.433 2.18-0.42 2.762l9.253 2.686 21.494-12.552c1.011-0.625 1.931-0.279 1.175 0.346l-17.386 14.57z"></path>
        </symbol>
<!-- иконка вверх -->
        <symbol id="icon-uparrow" viewBox="0 0 32 32">
<path d="M8.84 15.48l7.16-5.76 7.16 5.973c0.226 0.189 0.519 0.304 0.839 0.307h0.001c0.001 0 0.001 0 0.002 0 0.411 0 0.778-0.186 1.023-0.478l0.002-0.002c0.192-0.229 0.309-0.528 0.309-0.854 0-0.412-0.187-0.78-0.48-1.025l-0.002-0.002-8-6.667c-0.228-0.189-0.524-0.303-0.847-0.303s-0.618 0.115-0.849 0.305l-7.998 6.438c-0.305 0.246-0.498 0.62-0.498 1.039 0 0.32 0.113 0.613 0.3 0.843l-0.002-0.002c0.246 0.3 0.617 0.49 1.033 0.49 0.323 0 0.619-0.115 0.849-0.305l-0.002 0.002z"></path>
<path d="M16.853 16.307c-0.228-0.189-0.524-0.303-0.847-0.303s-0.618 0.115-0.849 0.305l-7.998 6.438c-0.305 0.246-0.498 0.62-0.498 1.039 0 0.32 0.113 0.613 0.3 0.843l-0.002-0.002c0.246 0.305 0.62 0.498 1.039 0.498 0.32 0 0.613-0.113 0.843-0.3l-0.002 0.002 7.16-5.773 7.16 5.973c0.226 0.189 0.519 0.304 0.839 0.307h0.001c0.001 0 0.001 0 0.002 0 0.411 0 0.778-0.186 1.023-0.478l0.002-0.002c0.192-0.229 0.309-0.528 0.309-0.854 0-0.412-0.187-0.78-0.48-1.025l-0.002-0.002z"></path>
</symbol>

    </defs>
</svg>
