<svg aria-hidden="true" style="position: absolute; width: 0; height: 0; overflow: hidden;" version="1.1" xmlns="http://www.w3.org/2000/svg" xmlns:xlink="http://www.w3.org/1999/xlink">
    <defs>
        <!-- круг в герое для псевдоэлемента -->
        <symbol id="ellipse" viewBox="0 0 32 32">
            <path d="M32 16c0 8.837-7.163 16-16 16s-16-7.163-16-16c0-8.837 7.163-16 16-16s16 7.163 16 16z"></path>
        </symbol>


        <!-- трое-точие в карточках -->
        <symbol id="three_points" viewBox="0 0 139 32">
            <path d="M85.333 16c0 8.837-7.163 16-16 16s-16-7.163-16-16c0-8.837 7.163-16 16-16s16 7.163 16 16z"></path>
            <path d="M32 16c0 8.837-7.163 16-16 16s-16-7.163-16-16c0-8.837 7.163-16 16-16s16 7.163 16 16z"></path>
            <path d="M138.667 16c0 8.837-7.163 16-16 16s-16-7.163-16-16c0-8.837 7.163-16 16-16s16 7.163 16 16z"></path>
        </symbol>

        <!-- соцсети -->
        <symbol id="github" viewBox="0 0 32 32">
            <path d="M32 16c0 8.837-7.163 16-16 16s-16-7.163-16-16c0-8.837 7.163-16 16-16s16 7.163 16 16z"></path>
            <path d="M16 6.588c-5.169 0-9.412 4.242-9.412 9.412 0 4.411 3.095 8.419 7.206 9.412v-3.114c-0.407 0.089-0.782 0.092-1.197-0.030-0.556-0.164-1.008-0.535-1.344-1.1-0.214-0.361-0.593-0.752-0.988-0.723l-0.097-1.099c0.855-0.073 1.595 0.521 2.034 1.259 0.195 0.328 0.419 0.52 0.708 0.605 0.278 0.082 0.578 0.043 0.926-0.080 0.088-0.698 0.407-0.959 0.648-1.326v-0.001c-2.451-0.366-3.428-1.666-3.816-2.693-0.514-1.363-0.238-3.066 0.671-4.142 0.018-0.021 0.050-0.076 0.037-0.114-0.417-1.258 0.091-2.299 0.11-2.41 0.481 0.142 0.559-0.143 2.089 0.786l0.264 0.159c0.111 0.066 0.076 0.028 0.186 0.020 0.639-0.173 1.312-0.269 1.975-0.278 0.668 0.009 1.337 0.104 2.002 0.285l0.086 0.009c-0.007-0.001 0.023-0.005 0.075-0.036 1.911-1.157 1.842-0.779 2.355-0.946 0.019 0.111 0.519 1.169 0.107 2.411-0.056 0.171 1.657 1.739 0.708 4.256-0.388 1.027-1.365 2.328-3.816 2.693v0.001c0.314 0.479 0.692 0.734 0.69 1.722v3.887c4.111-0.993 7.206-5 7.206-9.412 0-5.169-4.242-9.412-9.412-9.412v0z"></path>
        </symbol>

        <symbol id="telegram" viewBox="0 0 32 32">
            <path d="M32 16c0 8.837-7.163 16-16 16s-16-7.163-16-16c0-8.837 7.163-16 16-16s16 7.163 16 16z"></path>
            <path d="M12.867 18.375l-0.318 4.169c0.454 0 0.651-0.182 0.887-0.401l2.13-1.9 4.415 3.017c0.81 0.421 1.38 0.199 1.598-0.695l2.898-12.673c0.257-1.117-0.433-1.554-1.222-1.28l-17.032 6.086c-1.162 0.421-1.145 1.026-0.198 1.3l4.354 1.264 10.115-5.907c0.476-0.294 0.909-0.131 0.553 0.163l-8.182 6.857z"></path>
        </symbol>

        <symbol id="facebook" viewBox="0 0 32 32">
            <path d="M16 32c8.837 0 16-7.163 16-16s-7.163-16-16-16c-8.837 0-16 7.163-16 16s7.163 16 16 16z"></path>
            <path d="M20.446 15.982h-2.61v9.619h-3.955v-9.619h-1.881v-3.38h1.881v-2.187c0-1.564 0.739-4.014 3.99-4.014l2.929 0.012v3.281h-2.125c-0.349 0-0.839 0.175-0.839 0.921v1.989h2.955l-0.346 3.377z"></path>
        </symbol>

        <!-- группа точек в отзывах -->
        <symbol id="Group_points" viewBox="0 0 256 32">
            <path d="M144 16c0 8.837-7.163 16-16 16s-16-7.163-16-16c0-8.837 7.163-16 16-16s16 7.163 16 16z"></path>
            <path d="M32 16c0 8.837-7.163 16-16 16s-16-7.163-16-16c0-8.837 7.163-16 16-16s16 7.163 16 16z"></path>
            <path d="M256 16c0 8.837-7.163 16-16 16s-16-7.163-16-16c0-8.837 7.163-16 16-16s16 7.163 16 16z"></path>
        </symbol>

        <!-- иконка к главной слайдера -->
        <symbol id="home_slider" viewBox="0 0 35 32">
            <path d="M34.253 15.613c0.599-0.659 0.541-1.669-0.129-2.255l-14.772-12.926c-0.671-0.586-1.745-0.574-2.402 0.028l-14.822 13.587c-0.656 0.602-0.689 1.611-0.071 2.252l0.372 0.387c0.617 0.642 1.613 0.718 2.224 0.17l1.108-0.992v14.523c0 0.891 0.722 1.613 1.612 1.613h5.778c0.89 0 1.612-0.721 1.612-1.613v-10.16h7.37v10.16c-0.013 0.89 0.624 1.612 1.515 1.612h6.123c0.89 0 1.613-0.722 1.613-1.613v-14.318c0 0 0.306 0.268 0.683 0.6s1.168 0.066 1.767-0.594l0.42-0.462z"></path>
        </symbol>

        <!-- круг в слайдере отзыва -->
        <symbol id="ellipse_slider" viewBox="0 0 32 32">
            <path d="M32 16c0 8.837-7.163 16-16 16s-16-7.163-16-16c0-8.837 7.163-16 16-16s16 7.163 16 16z"></path>
        </symbol>

        <!-- стрелка слайдера и карточек -->
        <symbol id="arrow" viewBox="0 0 32 32">
            <path d="M20.735 16.721c-0.044 0.103-0.108 0.196-0.188 0.274l-3.676 3.565c-0.163 0.155-0.383 0.241-0.611 0.24s-0.447-0.090-0.608-0.246c-0.161-0.156-0.253-0.368-0.254-0.59s0.087-0.434 0.247-0.592l2.197-2.131h-6.575c-0.23 0-0.45-0.089-0.613-0.246s-0.254-0.371-0.254-0.594c0-0.223 0.091-0.437 0.254-0.594s0.383-0.246 0.613-0.246h6.575l-2.198-2.131c-0.16-0.158-0.248-0.371-0.247-0.592s0.092-0.433 0.254-0.59c0.161-0.157 0.38-0.245 0.608-0.246s0.448 0.085 0.611 0.24l3.676 3.565c0.121 0.118 0.204 0.267 0.237 0.43s0.017 0.332-0.049 0.486z"></path>
        </symbol>

        <!-- бургер для мобильного меню -->
        <symbol id="icon-burger" viewBox="0 0 46 32">
            <path stroke="#d41443" style="stroke: var(--color1, #d41443)" stroke-linejoin="miter" stroke-linecap="butt" stroke-miterlimit="4" stroke-width="2.2857" d="M0 2.286h45.714"></path>
            <path stroke="#d41443" style="stroke: var(--color1, #d41443)" stroke-linejoin="miter" stroke-linecap="butt" stroke-miterlimit="4" stroke-width="2.2857" d="M0 16h45.714"></path>
            <path stroke="#d41443" style="stroke: var(--color1, #d41443)" stroke-linejoin="miter" stroke-linecap="butt" stroke-miterlimit="4" stroke-width="2.2857" d="M0 29.714h45.714"></path>
        </symbol>

        <!-- ионки над описание м производства -->
        <symbol id="ice-cream-p1" viewBox="0 0 32 32">
            <path d="M25.314 13.081h-18.997l2.434 18.728h14.499l2.434-18.728h-0.37zM22.626 16.464c-0.020 0.056-0.041 0.111-0.062 0.167-0.124 0.324-0.269 0.636-0.44 0.932-0.023 0.040-0.049 0.078-0.073 0.118-0.185 0.304-0.389 0.596-0.621 0.865-0.006 0.007-0.013 0.013-0.019 0.020-0.232 0.268-0.491 0.513-0.765 0.741-0.029 0.024-0.056 0.050-0.086 0.074-0.27 0.216-0.561 0.408-0.866 0.582-0.050 0.029-0.1 0.058-0.151 0.086-0.304 0.164-0.624 0.306-0.957 0.425-0.058 0.021-0.117 0.040-0.175 0.059-0.342 0.113-0.696 0.206-1.063 0.269-0.047 0.008-0.096 0.013-0.144 0.020-0.391 0.060-0.791 0.098-1.204 0.098s-0.814-0.038-1.204-0.098c-0.048-0.007-0.096-0.012-0.144-0.020-0.368-0.063-0.722-0.156-1.064-0.269-0.059-0.019-0.118-0.038-0.175-0.059-0.333-0.119-0.653-0.261-0.957-0.425-0.051-0.028-0.101-0.058-0.152-0.086-0.305-0.174-0.596-0.366-0.865-0.582-0.030-0.024-0.058-0.051-0.087-0.075-0.274-0.227-0.531-0.472-0.763-0.738-0.007-0.007-0.014-0.014-0.021-0.021-0.231-0.268-0.435-0.56-0.619-0.863-0.025-0.041-0.052-0.080-0.076-0.121-0.17-0.294-0.315-0.606-0.438-0.929-0.021-0.057-0.043-0.113-0.063-0.17-0.114-0.325-0.204-0.662-0.268-1.011-0.004-0.023-0.007-0.047-0.011-0.070h13.811c-0.004 0.023-0.006 0.046-0.010 0.069-0.062 0.348-0.153 0.686-0.268 1.012zM21.229 29.509h-10.458l-1.117-8.596c0.064 0.057 0.135 0.106 0.202 0.162 0.097 0.081 0.195 0.161 0.296 0.237 0.125 0.095 0.254 0.186 0.386 0.275 0.104 0.071 0.208 0.142 0.316 0.209 0.136 0.084 0.277 0.163 0.419 0.241 0.11 0.061 0.22 0.122 0.333 0.178 0.148 0.073 0.3 0.139 0.453 0.205 0.115 0.049 0.229 0.101 0.347 0.146 0.16 0.061 0.325 0.113 0.489 0.166 0.118 0.038 0.233 0.080 0.354 0.113 0.175 0.049 0.355 0.087 0.535 0.126 0.116 0.026 0.23 0.056 0.348 0.078 0.201 0.037 0.408 0.061 0.614 0.085 0.102 0.012 0.201 0.031 0.305 0.040 0.312 0.028 0.628 0.043 0.95 0.043s0.639-0.016 0.95-0.043c0.104-0.009 0.204-0.028 0.306-0.040 0.206-0.025 0.412-0.049 0.612-0.085 0.119-0.021 0.234-0.052 0.352-0.078 0.178-0.040 0.357-0.077 0.53-0.126 0.122-0.034 0.24-0.076 0.359-0.115 0.163-0.052 0.325-0.104 0.483-0.164 0.12-0.046 0.235-0.099 0.352-0.149 0.151-0.065 0.301-0.13 0.448-0.202 0.115-0.057 0.226-0.119 0.338-0.181 0.14-0.077 0.279-0.154 0.414-0.238 0.109-0.068 0.215-0.14 0.321-0.212 0.129-0.088 0.257-0.178 0.382-0.272 0.102-0.077 0.2-0.158 0.298-0.239 0.065-0.055 0.136-0.104 0.2-0.161l-1.117 8.597z"></path>
            <path d="M12.187 8.31c0.071-0.065 0.149-0.118 0.233-0.158 0.242 0.18 0.384 0.463 0.384 0.827 0 1.792 1.457 3.249 3.247 3.249 1.792 0 3.249-1.458 3.249-3.316 0-0.317 0.157-0.608 0.421-0.786 0.106 0.043 0.225 0.113 0.351 0.23 0.602 0.553 1.383 0.858 2.199 0.858 0.906 0 1.778-0.382 2.392-1.049 0.588-0.638 0.892-1.467 0.855-2.334s-0.408-1.668-1.053-2.255c-0.053-0.082-0.224-0.459-0.208-1.881l0.001-1.28h-15.262l-1.152 0.087 0.002 1.152c0.002 1.284-0.083 1.772-0.147 1.958-0.615 0.583-0.972 1.369-1.007 2.219-0.036 0.866 0.267 1.695 0.855 2.334 1.167 1.267 3.268 1.409 4.64 0.145zM9.345 5.222c0.524-0.481 0.719-1.289 0.778-2.508h11.858c0.065 0.998 0.286 1.956 0.936 2.554 0.186 0.171 0.294 0.405 0.305 0.659s-0.078 0.495-0.249 0.68c-0.344 0.374-0.912 0.455-1.392 0.009-0.538-0.493-1.207-0.785-1.934-0.844l-0.344-0.027-0.303 0.165c-0.108 0.060-0.217 0.115-0.328 0.168l-0.099 0.053c-0.985 0.595-1.573 1.634-1.573 2.847 0 0.523-0.426 0.949-0.949 0.949-0.522 0-0.947-0.426-0.947-1.017 0-1.147-0.588-2.186-1.574-2.781l-0.099-0.053c-0.108-0.052-0.215-0.106-0.32-0.163l-0.321-0.171-0.361 0.044c-0.674 0.082-1.295 0.369-1.849 0.877-0.373 0.345-0.997 0.317-1.341-0.056-0.171-0.186-0.26-0.428-0.25-0.681s0.119-0.487 0.356-0.704z"></path>
        </symbol>

        <symbol id="ice-cream-p2" viewBox="0 0 32 32">
            <path d="M30.768 22.829c-0.632-1.286-1.701-2.143-2.932-2.352-0.676-0.114-1.353-0.010-1.997 0.247 0.001-0.008 0.003-0.016 0.004-0.024v-0.001l0.007-0.018 0.013-0.036 0.025-0.072 0.047-0.143c0.050-0.090 0.1-0.179 0.147-0.265 0.117-0.167 0.235-0.32 0.362-0.434 0.13-0.112 0.24-0.196 0.317-0.246 0.070-0.041 0.11-0.064 0.11-0.064l0.013-0.007c0.058-0.034 0.113-0.073 0.166-0.119 0.48-0.413 0.535-1.138 0.122-1.619-0.414-0.481-1.138-0.536-1.618-0.122 0 0-0.083 0.071-0.229 0.196-0.133 0.124-0.305 0.305-0.493 0.535-0.181 0.237-0.388 0.52-0.566 0.857-0.080 0.176-0.166 0.355-0.236 0.545l-0.090 0.297-0.044 0.15-0.021 0.076-0.011 0.038-0.020 0.104c-0.021 0.159-0.043 0.31-0.064 0.465-0.555-0.261-1.139-0.384-1.728-0.367l1.27-9.773c0.016-0.078 0.040-0.152 0.053-0.231 0.247-1.452 0.063-2.902-0.517-4.082-0.631-1.286-1.701-2.144-2.933-2.353-0.675-0.115-1.352-0.011-1.996 0.247 0.001-0.009 0.003-0.017 0.004-0.025v-0.001l0.007-0.018 0.013-0.036 0.025-0.072 0.047-0.143c0.050-0.090 0.1-0.18 0.147-0.266 0.116-0.166 0.235-0.319 0.361-0.434 0.13-0.111 0.241-0.195 0.317-0.246 0.070-0.041 0.11-0.064 0.11-0.064l0.013-0.007c0.058-0.034 0.113-0.074 0.166-0.119 0.481-0.413 0.536-1.138 0.123-1.618s-1.137-0.536-1.618-0.123c0 0-0.083 0.071-0.229 0.196-0.132 0.124-0.305 0.305-0.492 0.535-0.181 0.237-0.388 0.52-0.566 0.856-0.080 0.176-0.166 0.355-0.237 0.545l-0.090 0.298-0.043 0.15-0.021 0.075-0.011 0.038-0.020 0.105c-0.022 0.159-0.043 0.31-0.065 0.466-0.709-0.334-1.469-0.469-2.228-0.34-0.018 0.003-0.037 0.010-0.056 0.014-1.32-1.224-2.986-1.733-4.474-1.324-0.839 0.231-1.562 0.749-2.135 1.453-0.036-0.128-0.071-0.251-0.107-0.382v-0.001l-0.002-0.024-0.004-0.049-0.011-0.095-0.023-0.191c0.007-0.13 0.014-0.258 0.021-0.383 0.040-0.251 0.092-0.487 0.17-0.685 0.083-0.195 0.16-0.35 0.219-0.45 0.058-0.087 0.090-0.138 0.090-0.138l0.023-0.034c0.029-0.045 0.055-0.093 0.078-0.143 0.264-0.576 0.011-1.257-0.564-1.521s-1.257-0.011-1.521 0.565c0 0-0.051 0.112-0.141 0.308-0.078 0.19-0.17 0.46-0.256 0.787-0.074 0.331-0.153 0.721-0.176 1.154 0.003 0.219-0.001 0.445 0.016 0.674l0.050 0.349 0.026 0.175 0.015 0.087 0.007 0.044 0.027 0.107c0.082 0.266 0.161 0.525 0.238 0.781-0.984-0.050-1.92 0.188-2.678 0.712-1.222 0.846-1.875 2.319-1.854 4.014h-0.027l0.037 0.282c0.020 0.362 0.060 0.73 0.143 1.106 0 0.001 0.001 0.002 0.001 0.003l2.696 20.748h17.089l0.102-0.78c0.851 0.576 1.83 0.84 2.824 0.671 0.423-0.071 0.832-0.221 1.209-0.441 0.378 0.22 0.786 0.37 1.208 0.441 0.201 0.034 0.403 0.051 0.603 0.051v0c2.278 0 4.288-2.096 4.779-4.984 0.247-1.452 0.063-2.902-0.516-4.082zM25.854 20.635v-0.001c0 0.003 0 0 0 0.001v0zM29.031 26.528c-0.324 1.904-1.563 3.083-2.526 3.082-0.073 0-0.146-0.006-0.221-0.019-0.281-0.047-0.545-0.192-0.786-0.431-0.223-0.221-0.514-0.332-0.805-0.332s-0.583 0.111-0.805 0.332c-0.239 0.238-0.503 0.383-0.787 0.43-0.678 0.115-1.49-0.364-2.071-1.276-0.308-0.482-0.554-1.079-0.674-1.788-0.165-0.968-0.050-1.95 0.315-2.691 0.16-0.327 0.513-0.847 1.076-1.038 0.064-0.022 0.12-0.058 0.189-0.070 0.631-0.109 1.306 0.257 1.856 0.961 0.216 0.277 0.549 0.44 0.9 0.44 0 0 0 0 0 0 0.158 0 0.31-0.037 0.451-0.098 0.025-0.008 0.050-0.004 0.075-0.014 0.263-0.106 0.452-0.306 0.572-0.539 0.51-0.555 1.094-0.848 1.66-0.75 0.684 0.116 1.086 0.744 1.264 1.107 0.368 0.745 0.482 1.726 0.317 2.694zM3.94 14.3c-0.084-0.213-0.165-0.428-0.233-0.648-0.030-0.095-0.051-0.193-0.077-0.289-0.049-0.177-0.098-0.354-0.136-0.536-0.023-0.111-0.040-0.225-0.059-0.337-0.022-0.129-0.042-0.26-0.059-0.392h17.275c-0.017 0.132-0.037 0.262-0.059 0.392-0.020 0.113-0.036 0.226-0.059 0.337-0.038 0.181-0.086 0.358-0.136 0.536-0.026 0.096-0.047 0.194-0.077 0.289-0.068 0.22-0.148 0.435-0.233 0.648-0.018 0.046-0.032 0.096-0.052 0.142-0.106 0.257-0.226 0.508-0.354 0.752-0.040 0.075-0.086 0.146-0.127 0.219-0.094 0.167-0.189 0.333-0.293 0.493-0.059 0.090-0.124 0.175-0.185 0.263-0.096 0.136-0.192 0.273-0.295 0.404-0.072 0.091-0.148 0.176-0.223 0.264-0.103 0.12-0.205 0.239-0.313 0.354-0.082 0.086-0.168 0.168-0.253 0.251-0.11 0.107-0.222 0.213-0.337 0.314-0.090 0.079-0.183 0.155-0.276 0.23-0.119 0.096-0.239 0.188-0.362 0.278-0.097 0.071-0.197 0.14-0.298 0.207-0.126 0.084-0.255 0.164-0.386 0.241-0.104 0.062-0.208 0.122-0.314 0.179-0.136 0.072-0.274 0.14-0.414 0.205-0.107 0.050-0.215 0.102-0.326 0.147-0.146 0.061-0.294 0.115-0.444 0.167-0.109 0.039-0.219 0.080-0.33 0.114-0.158 0.049-0.32 0.088-0.482 0.128-0.107 0.026-0.214 0.057-0.323 0.079-0.183 0.037-0.369 0.063-0.554 0.087-0.093 0.013-0.184 0.031-0.277 0.041-0.282 0.029-0.567 0.044-0.855 0.044s-0.573-0.016-0.855-0.044c-0.093-0.009-0.184-0.028-0.277-0.041-0.186-0.024-0.372-0.050-0.554-0.087-0.109-0.022-0.216-0.053-0.323-0.079-0.162-0.040-0.324-0.079-0.482-0.128-0.111-0.034-0.221-0.076-0.33-0.114-0.149-0.053-0.298-0.106-0.444-0.167-0.11-0.046-0.218-0.097-0.326-0.147-0.139-0.065-0.278-0.132-0.414-0.205-0.106-0.057-0.211-0.118-0.314-0.179-0.131-0.077-0.26-0.157-0.386-0.241-0.101-0.067-0.201-0.136-0.298-0.207-0.124-0.089-0.244-0.182-0.362-0.278-0.094-0.075-0.187-0.151-0.277-0.23-0.115-0.102-0.227-0.207-0.337-0.314-0.085-0.083-0.171-0.165-0.253-0.251-0.108-0.115-0.21-0.234-0.313-0.354-0.075-0.088-0.151-0.173-0.223-0.264-0.103-0.131-0.199-0.268-0.295-0.404-0.062-0.088-0.126-0.173-0.185-0.263-0.104-0.16-0.199-0.326-0.292-0.493-0.042-0.073-0.088-0.144-0.127-0.219-0.129-0.244-0.248-0.495-0.354-0.752-0.020-0.046-0.035-0.096-0.053-0.142zM15.885 7.225c0.228 0.292 0.593 0.421 0.953 0.406 0.158 0.006 0.318-0.015 0.473-0.078 0.261-0.106 0.449-0.304 0.57-0.535 0.509-0.557 1.096-0.853 1.663-0.755 0.684 0.116 1.085 0.744 1.264 1.107 0.333 0.678 0.458 1.557 0.351 2.444h-5.102c-0.001-0.051-0.011-0.104-0.013-0.154-0.008-0.227-0.027-0.453-0.054-0.681-0.012-0.101-0.020-0.201-0.035-0.303-0.051-0.326-0.115-0.651-0.204-0.973-0.086-0.314-0.192-0.619-0.312-0.917-0.006-0.015-0.009-0.031-0.015-0.046 0.16 0.136 0.316 0.299 0.461 0.485zM3.776 7.68c0.664-0.461 1.671-0.42 2.667 0.087 0.315 0.16 0.684 0.167 1.003 0.018 0.136-0.063 0.252-0.156 0.351-0.264 0.238-0.209 0.396-0.507 0.396-0.849 0-0.003-0.002-0.007-0.002-0.010 0.294-0.913 0.841-1.569 1.53-1.759 0.846-0.232 1.855 0.214 2.663 1.158 0.526 0.615 0.929 1.393 1.165 2.25 0.063 0.232 0.111 0.465 0.148 0.699 0.011 0.073 0.017 0.146 0.025 0.22 0.020 0.16 0.035 0.319 0.042 0.478 0.001 0.037 0 0.072 0.001 0.108h-10.871c-0.021-0.947 0.29-1.727 0.882-2.136zM18.551 29.668h-13.074l-1.426-10.98c0.032 0.034 0.067 0.063 0.1 0.097 0.134 0.141 0.275 0.273 0.417 0.406 0.123 0.115 0.243 0.234 0.371 0.343 0.146 0.126 0.299 0.243 0.452 0.361 0.134 0.104 0.264 0.21 0.402 0.307 0.159 0.113 0.326 0.214 0.49 0.317 0.142 0.089 0.281 0.182 0.426 0.265 0.171 0.097 0.351 0.182 0.527 0.27 0.148 0.074 0.293 0.152 0.445 0.219 0.185 0.082 0.378 0.15 0.569 0.221 0.151 0.057 0.299 0.12 0.453 0.17 0.205 0.066 0.417 0.116 0.626 0.171 0.147 0.038 0.291 0.084 0.44 0.116 0.239 0.051 0.484 0.083 0.728 0.118 0.127 0.018 0.25 0.046 0.378 0.060 0.375 0.040 0.754 0.061 1.139 0.061s0.765-0.021 1.139-0.061c0.128-0.014 0.251-0.042 0.378-0.060 0.244-0.034 0.489-0.066 0.728-0.118 0.149-0.032 0.293-0.078 0.44-0.116 0.21-0.055 0.422-0.104 0.626-0.171 0.154-0.050 0.302-0.113 0.453-0.17 0.19-0.071 0.384-0.139 0.569-0.221 0.152-0.067 0.297-0.146 0.445-0.219 0.177-0.088 0.356-0.173 0.527-0.27 0.146-0.083 0.285-0.176 0.426-0.265 0.164-0.104 0.331-0.205 0.49-0.317 0.138-0.097 0.269-0.203 0.402-0.307 0.152-0.118 0.306-0.234 0.452-0.361 0.127-0.109 0.248-0.228 0.371-0.343 0.141-0.133 0.283-0.266 0.417-0.406 0.033-0.033 0.068-0.063 0.1-0.097l-0.361 2.783c-0.393 0.371-0.734 0.824-0.996 1.357-0.58 1.181-0.764 2.63-0.517 4.083 0.112 0.658 0.309 1.272 0.567 1.833l-0.119 0.924z"></path>
        </symbol>

        <symbol id="ice-cream-p3" viewBox="0 0 32 32">
            <path d="M30.005 7.761c-0.418-4.518-3.822-6.849-6.806-7.104-0.446-0.040-0.865-0.057-1.259-0.057-2.841 0-4.49 1.443-5.875 2.876-1.386-1.434-3.035-2.876-5.877-2.876-0.394 0-0.814 0.017-1.257 0.056-2.987 0.256-6.39 2.588-6.806 7.106-0.003 0.035-0.005 0.070-0.005 0.105v1.28c0 0.035 0.002 0.069 0.005 0.104 0.143 1.57 0.733 3.178 1.758 4.779 1.77 2.766 4.825 5.573 9.287 8.539v8.971h5.789v-8.97c4.47-2.971 7.527-5.781 9.293-8.548 0.001-0.001 0.001-0.002 0.001-0.003 1.021-1.604 1.611-3.208 1.752-4.769 0.003-0.034 0.005-0.069 0.005-0.103v-1.28c0-0.035-0.002-0.071-0.005-0.106zM4.421 7.922c0.313-3.168 2.654-4.798 4.709-4.973 0.375-0.033 0.728-0.048 1.059-0.048 2.167 0 3.268 1.163 4.66 2.634l0.387 0.407c0.436 0.452 1.225 0.452 1.66 0l0.389-0.41c1.392-1.47 2.49-2.631 4.656-2.631 0.331 0 0.683 0.015 1.061 0.048 2.052 0.175 4.393 1.806 4.708 4.973v1.171c-0.092 0.938-0.409 1.916-0.944 2.919-0.010-0.005-0.021-0.010-0.030-0.015-0.095-0.050-0.186-0.103-0.267-0.157-0.010-0.006-0.017-0.012-0.026-0.019-0.072-0.049-0.137-0.099-0.195-0.147-0.020-0.017-0.037-0.033-0.056-0.049-0.042-0.038-0.079-0.075-0.109-0.109-0.012-0.014-0.025-0.028-0.036-0.042-0.034-0.044-0.060-0.086-0.066-0.118v-0.593c0-1.783-1.3-3.233-2.897-3.233s-2.898 1.45-2.898 3.233v1.452c0 0.534-0.314 0.933-0.596 0.933s-0.598-0.399-0.598-0.933v-1.452c0-1.783-1.3-3.233-2.897-3.233s-2.897 1.45-2.897 3.233v1.452c0 0.534-0.314 0.933-0.597 0.933s-0.597-0.399-0.597-0.933v-1.452c0-1.783-1.3-3.233-2.897-3.233s-2.898 1.45-2.898 3.233l0.001 0.583c-0.008 0.039-0.036 0.085-0.073 0.134-0.012 0.015-0.026 0.031-0.040 0.047-0.033 0.037-0.071 0.076-0.116 0.115-0.020 0.017-0.038 0.034-0.060 0.052-0.064 0.052-0.136 0.105-0.216 0.158-0.006 0.003-0.010 0.007-0.016 0.010-0.085 0.055-0.18 0.107-0.276 0.156-0.011 0.005-0.022 0.010-0.033 0.016-0.541-1.007-0.862-1.994-0.955-2.942v-1.17zM15.471 29.24v-5.201c0.183 0.111 0.389 0.167 0.595 0.167 0.205 0 0.411-0.056 0.593-0.166v5.2h-1.188zM16.864 21.189h-1.598c-3.912-2.522-6.806-4.946-8.608-7.227 0.019-0.010 0.035-0.022 0.054-0.033 0.033-0.020 0.065-0.041 0.099-0.061 0.144-0.087 0.283-0.181 0.417-0.283 0.030-0.023 0.062-0.044 0.092-0.068 0.148-0.119 0.287-0.247 0.415-0.383 0.030-0.032 0.059-0.066 0.087-0.099 0.113-0.129 0.216-0.265 0.305-0.408 0.013-0.021 0.028-0.040 0.041-0.061 0.093-0.16 0.165-0.33 0.221-0.506 0.014-0.042 0.024-0.084 0.036-0.127 0.048-0.185 0.082-0.375 0.082-0.575v-0.593c0-0.534 0.315-0.933 0.598-0.933s0.595 0.398 0.595 0.932v1.452c0 1.783 1.3 3.233 2.897 3.233s2.897-1.45 2.897-3.233v-1.452c0-0.534 0.314-0.933 0.597-0.933s0.597 0.399 0.597 0.933v1.452c0 1.783 1.301 3.233 2.898 3.233s2.896-1.45 2.896-3.233v-1.452c0-0.534 0.315-0.933 0.598-0.933s0.597 0.399 0.597 0.933v0.593c0 0.197 0.033 0.384 0.079 0.566 0.011 0.043 0.021 0.085 0.034 0.127 0.055 0.174 0.124 0.343 0.215 0.501 0.010 0.017 0.022 0.033 0.032 0.050 0.087 0.145 0.189 0.282 0.301 0.412 0.028 0.033 0.055 0.066 0.085 0.098 0.125 0.136 0.259 0.264 0.404 0.382 0.026 0.022 0.055 0.041 0.082 0.062 0.13 0.101 0.265 0.195 0.405 0.282 0.037 0.023 0.072 0.047 0.11 0.069 0.021 0.012 0.040 0.026 0.061 0.038-1.797 2.285-4.697 4.714-8.621 7.245z"></path>
        </symbol>

    </defs>
</svg>
