<svg aria-hidden="true" style="position: absolute; width: 0; height: 0; overflow: hidden;" version="1.1" xmlns="http://www.w3.org/2000/svg" xmlns:xlink="http://www.w3.org/1999/xlink">
    <defs>
        <symbol id="candy" viewBox="0 0 32 32">
            <path d="M30.005 7.761c-0.418-4.518-3.822-6.849-6.806-7.104-0.377-0.036-0.815-0.057-1.259-0.057h-0c-2.841 0-4.49 1.443-5.875 2.876-1.386-1.434-3.035-2.876-5.877-2.876-0.394 0-0.814 0.017-1.257 0.056-2.987 0.256-6.39 2.588-6.806 7.106-0.003 0.031-0.005 0.068-0.005 0.105v1.28c0 0.035 0.002 0.069 0.005 0.104 0.143 1.57 0.733 3.178 1.758 4.779 1.77 2.766 4.825 5.573 9.287 8.539v8.971h5.789v-8.97c4.47-2.971 7.527-5.781 9.293-8.548l0.001-0.003c1.021-1.604 1.611-3.208 1.752-4.769 0.003-0.034 0.005-0.069 0.005-0.103v-1.28c0-0.035-0.002-0.071-0.005-0.106zM4.421 7.922c0.313-3.168 2.654-4.798 4.709-4.973 0.375-0.033 0.728-0.048 1.059-0.048 2.167 0 3.268 1.163 4.66 2.634l0.387 0.407c0.436 0.452 1.225 0.452 1.66 0l0.389-0.41c1.392-1.47 2.49-2.631 4.656-2.631 0.331 0 0.683 0.015 1.061 0.048 2.052 0.175 4.393 1.806 4.708 4.973v1.171c-0.092 0.938-0.409 1.916-0.944 2.919l-0.030-0.015c-0.106-0.056-0.194-0.108-0.278-0.164l0.011 0.007c-0.010-0.006-0.017-0.012-0.026-0.019-0.074-0.051-0.138-0.099-0.199-0.15l0.004 0.003-0.056-0.049c-0.039-0.035-0.074-0.070-0.108-0.108l-0.001-0.001-0.036-0.042c-0.029-0.033-0.052-0.072-0.065-0.116l-0.001-0.002v-0.593c0-1.783-1.3-3.233-2.897-3.233s-2.898 1.45-2.898 3.233v1.452c0 0.534-0.314 0.933-0.596 0.933s-0.598-0.399-0.598-0.933v-1.452c0-1.783-1.3-3.233-2.897-3.233s-2.897 1.45-2.897 3.233v1.452c0 0.534-0.314 0.933-0.597 0.933s-0.597-0.399-0.597-0.933v-1.452c0-1.783-1.3-3.233-2.897-3.233s-2.898 1.45-2.898 3.233l0.001 0.583c-0.016 0.052-0.041 0.096-0.073 0.135l0-0.001c-0.049 0.059-0.1 0.112-0.155 0.161l-0.001 0.001-0.060 0.052c-0.063 0.051-0.133 0.103-0.206 0.152l-0.026 0.016c-0.085 0.055-0.186 0.112-0.291 0.164l-0.018 0.008c-0.541-1.007-0.862-1.994-0.955-2.942v-1.17zM15.471 29.24v-5.201c0.17 0.104 0.375 0.166 0.595 0.166s0.424-0.061 0.598-0.168l-0.005 0.003v5.2h-1.188zM16.864 21.189h-1.598c-3.912-2.522-6.806-4.946-8.608-7.227 0.019-0.010 0.035-0.022 0.054-0.033l0.099-0.061c0.162-0.098 0.298-0.191 0.428-0.291l-0.011 0.008c0.030-0.023 0.062-0.044 0.092-0.068 0.148-0.119 0.287-0.247 0.415-0.383 0.030-0.032 0.059-0.066 0.087-0.099 0.113-0.129 0.216-0.265 0.305-0.408l0.041-0.061c0.093-0.16 0.165-0.33 0.221-0.506 0.014-0.042 0.024-0.084 0.036-0.127 0.048-0.185 0.082-0.375 0.082-0.575v-0.593c0-0.534 0.315-0.933 0.598-0.933s0.595 0.398 0.595 0.932v1.452c0 1.783 1.3 3.233 2.897 3.233s2.897-1.45 2.897-3.233v-1.452c0-0.534 0.314-0.933 0.597-0.933s0.597 0.399 0.597 0.933v1.452c0 1.783 1.301 3.233 2.898 3.233s2.896-1.45 2.896-3.233v-1.452c0-0.534 0.315-0.933 0.598-0.933s0.597 0.399 0.597 0.933v0.593c0 0.197 0.033 0.384 0.079 0.566 0.011 0.043 0.021 0.085 0.034 0.127 0.055 0.174 0.124 0.343 0.215 0.501l0.032 0.050c0.087 0.145 0.189 0.282 0.301 0.412 0.028 0.033 0.055 0.066 0.085 0.098 0.125 0.136 0.259 0.264 0.404 0.382 0.026 0.022 0.055 0.041 0.082 0.062 0.13 0.101 0.265 0.195 0.405 0.282 0.037 0.023 0.072 0.047 0.11 0.069l0.061 0.038c-1.797 2.285-4.697 4.714-8.621 7.245z"></path>
        </symbol>
    </defs>
</svg>
