<svg aria-hidden="true" style="position: absolute; width: 0; height: 0; overflow: hidden;" version="1.1" xmlns="http://www.w3.org/2000/svg" xmlns:xlink="http://www.w3.org/1999/xlink">
    <defs>
        <symbol id="fruits" viewBox="0 0 32 32">
            <path d="M30.768 22.829c-0.632-1.286-1.701-2.143-2.932-2.352-0.676-0.114-1.353-0.010-1.997 0.247l0.004-0.024v-0.001l0.007-0.018 0.013-0.036 0.025-0.072 0.047-0.143 0.147-0.265c0.109-0.163 0.228-0.305 0.361-0.433l0.001-0.001c0.13-0.112 0.24-0.196 0.317-0.246l0.11-0.064 0.013-0.007c0.341-0.204 0.565-0.57 0.565-0.99 0-0.287-0.105-0.549-0.278-0.75l0.001 0.002c-0.211-0.245-0.523-0.4-0.87-0.4-0.287 0-0.549 0.105-0.75 0.279l0.001-0.001-0.229 0.196c-0.174 0.166-0.335 0.34-0.485 0.525l-0.008 0.010c-0.181 0.237-0.388 0.52-0.566 0.857-0.080 0.176-0.166 0.355-0.236 0.545l-0.090 0.297-0.044 0.15-0.021 0.076-0.011 0.038-0.020 0.104-0.064 0.465c-0.476-0.232-1.036-0.368-1.628-0.368-0.035 0-0.071 0-0.106 0.001l0.005-0 1.27-9.773c0.016-0.078 0.040-0.152 0.053-0.231 0.247-1.452 0.063-2.902-0.517-4.082-0.631-1.286-1.701-2.144-2.933-2.353-0.675-0.115-1.352-0.011-1.996 0.247l0.004-0.025v-0.001l0.007-0.018 0.013-0.036 0.025-0.072 0.047-0.143 0.147-0.266c0.116-0.166 0.235-0.319 0.361-0.434 0.13-0.111 0.241-0.195 0.317-0.246l0.11-0.064 0.013-0.007c0.338-0.204 0.56-0.569 0.56-0.986 0-0.633-0.514-1.147-1.147-1.147-0.284 0-0.544 0.103-0.744 0.274l0.002-0.001-0.229 0.196c-0.174 0.166-0.334 0.34-0.484 0.525l-0.008 0.010c-0.181 0.237-0.388 0.52-0.566 0.856-0.080 0.176-0.166 0.355-0.237 0.545l-0.090 0.298-0.043 0.15-0.021 0.075-0.011 0.038-0.020 0.105-0.065 0.466c-0.709-0.334-1.469-0.469-2.228-0.34-0.018 0.003-0.037 0.010-0.056 0.014-1.32-1.224-2.986-1.733-4.474-1.324-0.839 0.231-1.562 0.749-2.135 1.453l-0.107-0.382v-0.001l-0.002-0.024-0.004-0.049-0.011-0.095-0.023-0.191 0.021-0.383c0.040-0.251 0.092-0.487 0.17-0.685 0.083-0.195 0.16-0.35 0.219-0.45 0.058-0.087 0.090-0.138 0.090-0.138l0.023-0.034c0.119-0.178 0.19-0.397 0.19-0.632 0-0.634-0.514-1.148-1.148-1.148-0.465 0-0.866 0.277-1.046 0.674l-0.003 0.007-0.141 0.308c-0.078 0.19-0.17 0.46-0.256 0.787-0.085 0.334-0.147 0.729-0.175 1.133l-0.001 0.021c0.003 0.219-0.001 0.445 0.016 0.674l0.050 0.349 0.026 0.175 0.015 0.087 0.007 0.044 0.027 0.107 0.238 0.781c-0.984-0.050-1.92 0.188-2.678 0.712-1.222 0.846-1.875 2.319-1.854 4.014h-0.027l0.037 0.282c0.020 0.362 0.060 0.73 0.143 1.106l0.001 0.003 2.696 20.748h17.089l0.102-0.78c0.851 0.576 1.83 0.84 2.824 0.671 0.455-0.079 0.861-0.233 1.225-0.45l-0.016 0.009c0.518 0.309 1.143 0.492 1.811 0.492h0c2.278 0 4.288-2.096 4.779-4.984 0.247-1.452 0.063-2.902-0.516-4.082zM25.854 20.635v0zM29.031 26.528c-0.324 1.904-1.563 3.083-2.526 3.082-0.073 0-0.146-0.006-0.221-0.019-0.281-0.047-0.545-0.192-0.786-0.431-0.206-0.206-0.491-0.333-0.805-0.333s-0.599 0.127-0.805 0.333l0-0c-0.239 0.238-0.503 0.383-0.787 0.43-0.678 0.115-1.49-0.364-2.071-1.276-0.327-0.512-0.563-1.114-0.67-1.76l-0.004-0.028c-0.165-0.968-0.050-1.95 0.315-2.691 0.16-0.327 0.513-0.847 1.076-1.038 0.064-0.022 0.12-0.058 0.189-0.070 0.631-0.109 1.306 0.257 1.856 0.961 0.216 0.277 0.549 0.44 0.9 0.44 0.158 0 0.31-0.037 0.451-0.098 0.025-0.008 0.050-0.004 0.075-0.014 0.263-0.106 0.452-0.306 0.572-0.539 0.51-0.555 1.094-0.848 1.66-0.75 0.684 0.116 1.086 0.744 1.264 1.107 0.368 0.745 0.482 1.726 0.317 2.694zM3.94 14.3c-0.065-0.15-0.144-0.365-0.215-0.584l-0.018-0.064c-0.030-0.095-0.051-0.193-0.077-0.289-0.037-0.117-0.084-0.297-0.125-0.479l-0.011-0.057c-0.023-0.111-0.040-0.225-0.059-0.337-0.015-0.074-0.036-0.208-0.054-0.342l-0.005-0.050h17.275c-0.024 0.186-0.044 0.319-0.068 0.452l0.009-0.060c-0.020 0.113-0.036 0.226-0.059 0.337-0.051 0.237-0.098 0.417-0.151 0.594l0.015-0.058c-0.026 0.096-0.047 0.194-0.077 0.289-0.088 0.28-0.167 0.494-0.254 0.705l0.021-0.057c-0.018 0.046-0.032 0.096-0.052 0.142-0.13 0.312-0.248 0.56-0.378 0.8l0.024-0.048c-0.040 0.075-0.086 0.146-0.127 0.219-0.115 0.21-0.213 0.371-0.314 0.528l0.021-0.035c-0.059 0.090-0.124 0.175-0.185 0.263-0.096 0.136-0.192 0.273-0.295 0.404-0.072 0.091-0.148 0.176-0.223 0.264-0.103 0.12-0.205 0.239-0.313 0.354-0.082 0.086-0.168 0.168-0.253 0.251-0.106 0.104-0.215 0.206-0.328 0.306l-0.009 0.008c-0.278 0.242-0.583 0.477-0.902 0.693l-0.034 0.022c-0.095 0.065-0.221 0.144-0.349 0.221l-0.037 0.020c-0.065 0.041-0.168 0.101-0.272 0.158l-0.042 0.021c-0.136 0.072-0.274 0.14-0.414 0.205-0.107 0.050-0.215 0.102-0.326 0.147-0.094 0.042-0.241 0.099-0.39 0.151l-0.054 0.016c-0.109 0.039-0.219 0.080-0.33 0.114-0.158 0.049-0.32 0.088-0.482 0.128-0.107 0.026-0.214 0.057-0.323 0.079-0.136 0.029-0.324 0.059-0.515 0.083l-0.039 0.004c-0.093 0.013-0.184 0.031-0.277 0.041-0.256 0.028-0.554 0.044-0.855 0.044s-0.599-0.016-0.891-0.047l0.036 0.003c-0.093-0.009-0.184-0.028-0.277-0.041-0.229-0.027-0.417-0.058-0.604-0.095l0.050 0.008c-0.109-0.022-0.216-0.053-0.323-0.079-0.162-0.040-0.324-0.079-0.482-0.128-0.111-0.034-0.221-0.076-0.33-0.114-0.149-0.053-0.298-0.106-0.444-0.167-0.11-0.046-0.218-0.097-0.326-0.147-0.189-0.086-0.325-0.155-0.458-0.227l0.045 0.022c-0.149-0.080-0.252-0.14-0.353-0.201l0.039 0.022c-0.268-0.157-0.491-0.305-0.706-0.464l0.022 0.016c-0.142-0.103-0.26-0.194-0.375-0.288l0.013 0.010c-0.224-0.179-0.424-0.357-0.615-0.545l0.001 0.001c-0.085-0.083-0.171-0.165-0.253-0.251-0.108-0.115-0.21-0.234-0.313-0.354-0.075-0.088-0.151-0.173-0.223-0.264-0.103-0.131-0.199-0.268-0.295-0.404-0.062-0.088-0.126-0.173-0.185-0.263-0.082-0.125-0.179-0.286-0.27-0.45l-0.022-0.043c-0.042-0.073-0.088-0.144-0.127-0.219-0.107-0.194-0.225-0.441-0.332-0.695l-0.022-0.057c-0.020-0.046-0.035-0.096-0.053-0.142zM15.885 7.225c0.228 0.292 0.593 0.421 0.953 0.406 0.017 0.001 0.037 0.001 0.057 0.001 0.15 0 0.293-0.029 0.424-0.082l-0.008 0.003c0.261-0.106 0.449-0.304 0.57-0.535 0.509-0.557 1.096-0.853 1.663-0.755 0.684 0.116 1.085 0.744 1.264 1.107 0.333 0.678 0.458 1.557 0.351 2.444h-5.102c-0.001-0.051-0.011-0.104-0.013-0.154-0.010-0.254-0.029-0.489-0.058-0.721l0.004 0.040c-0.012-0.101-0.020-0.201-0.035-0.303-0.058-0.384-0.129-0.713-0.218-1.034l0.014 0.061c-0.103-0.371-0.21-0.676-0.332-0.973l0.020 0.056c-0.006-0.015-0.009-0.031-0.015-0.046 0.16 0.136 0.316 0.299 0.461 0.485zM3.776 7.68c0.664-0.461 1.671-0.42 2.667 0.087 0.151 0.081 0.33 0.129 0.52 0.129 0.331 0 0.629-0.144 0.833-0.373l0.001-0.001c0.238-0.209 0.396-0.507 0.396-0.849l-0.002-0.010c0.294-0.913 0.841-1.569 1.53-1.759 0.846-0.232 1.855 0.214 2.663 1.158 0.526 0.615 0.929 1.393 1.165 2.25 0.063 0.232 0.111 0.465 0.148 0.699 0.011 0.073 0.017 0.146 0.025 0.22 0.020 0.16 0.035 0.319 0.042 0.478l0.001 0.108h-10.871c-0.021-0.947 0.29-1.727 0.882-2.136zM18.551 29.668h-13.074l-1.426-10.98c0.032 0.034 0.067 0.063 0.1 0.097 0.134 0.141 0.275 0.273 0.417 0.406 0.123 0.115 0.243 0.234 0.371 0.343 0.146 0.126 0.299 0.243 0.452 0.361 0.134 0.104 0.264 0.21 0.402 0.307 0.159 0.113 0.326 0.214 0.49 0.317 0.142 0.089 0.281 0.182 0.426 0.265 0.171 0.097 0.351 0.182 0.527 0.27 0.148 0.074 0.293 0.152 0.445 0.219 0.185 0.082 0.378 0.15 0.569 0.221 0.151 0.057 0.299 0.12 0.453 0.17 0.205 0.066 0.417 0.116 0.626 0.171 0.147 0.038 0.291 0.084 0.44 0.116 0.239 0.051 0.484 0.083 0.728 0.118 0.127 0.018 0.25 0.046 0.378 0.060 0.342 0.039 0.738 0.061 1.139 0.061s0.797-0.022 1.187-0.065l-0.048 0.004c0.128-0.014 0.251-0.042 0.378-0.060 0.244-0.034 0.489-0.066 0.728-0.118 0.149-0.032 0.293-0.078 0.44-0.116 0.21-0.055 0.422-0.104 0.626-0.171 0.154-0.050 0.302-0.113 0.453-0.17 0.19-0.071 0.384-0.139 0.569-0.221 0.152-0.067 0.297-0.146 0.445-0.219 0.177-0.088 0.356-0.173 0.527-0.27 0.146-0.083 0.285-0.176 0.426-0.265 0.164-0.104 0.331-0.205 0.49-0.317 0.138-0.097 0.269-0.203 0.402-0.307 0.152-0.118 0.306-0.234 0.452-0.361 0.127-0.109 0.248-0.228 0.371-0.343 0.141-0.133 0.283-0.266 0.417-0.406 0.033-0.033 0.068-0.063 0.1-0.097l-0.361 2.783c-0.402 0.382-0.736 0.831-0.984 1.33l-0.012 0.027c-0.58 1.181-0.764 2.63-0.517 4.083 0.112 0.658 0.309 1.272 0.567 1.833l-0.119 0.924z"></path>
        </symbol>
    </defs>
</svg>
