<svg aria-hidden="true" style="position: absolute; width: 0; height: 0; overflow: hidden;" version="1.1" xmlns="http://www.w3.org/2000/svg" xmlns:xlink="http://www.w3.org/1999/xlink">
    <defs>
        <symbol id="milk" viewBox="0 0 32 32">
            <path d="M25.314 13.081h-18.997l2.434 18.728h14.499l2.434-18.728h-0.37zM22.626 16.464c-0.020 0.056-0.041 0.111-0.062 0.167-0.124 0.324-0.269 0.636-0.44 0.932-0.023 0.040-0.049 0.078-0.073 0.118-0.185 0.304-0.389 0.596-0.621 0.865-0.006 0.007-0.013 0.013-0.019 0.020-0.232 0.268-0.491 0.513-0.765 0.741-0.029 0.024-0.056 0.050-0.086 0.074-0.27 0.216-0.561 0.408-0.866 0.582-0.050 0.029-0.1 0.058-0.151 0.086-0.304 0.164-0.624 0.306-0.957 0.425-0.058 0.021-0.117 0.040-0.175 0.059-0.342 0.113-0.696 0.206-1.063 0.269-0.047 0.008-0.096 0.013-0.144 0.020-0.391 0.060-0.791 0.098-1.204 0.098s-0.814-0.038-1.204-0.098c-0.048-0.007-0.096-0.012-0.144-0.020-0.368-0.063-0.722-0.156-1.064-0.269-0.059-0.019-0.118-0.038-0.175-0.059-0.333-0.119-0.653-0.261-0.957-0.425-0.051-0.028-0.101-0.058-0.152-0.086-0.305-0.174-0.596-0.366-0.865-0.582-0.030-0.024-0.058-0.051-0.087-0.075-0.274-0.227-0.531-0.472-0.763-0.738-0.007-0.007-0.014-0.014-0.021-0.021-0.231-0.268-0.435-0.56-0.619-0.863-0.025-0.041-0.052-0.080-0.076-0.121-0.17-0.294-0.315-0.606-0.438-0.929-0.021-0.057-0.043-0.113-0.063-0.17-0.114-0.325-0.204-0.662-0.268-1.011-0.004-0.023-0.007-0.047-0.011-0.070h13.811c-0.004 0.023-0.006 0.046-0.010 0.069-0.062 0.348-0.153 0.686-0.268 1.012zM21.229 29.509h-10.458l-1.117-8.596c0.064 0.057 0.135 0.106 0.202 0.162 0.097 0.081 0.195 0.161 0.296 0.237 0.125 0.095 0.254 0.186 0.386 0.275 0.104 0.071 0.208 0.142 0.316 0.209 0.136 0.084 0.277 0.163 0.419 0.241 0.11 0.061 0.22 0.122 0.333 0.178 0.148 0.073 0.3 0.139 0.453 0.205 0.115 0.049 0.229 0.101 0.347 0.146 0.16 0.061 0.325 0.113 0.489 0.166 0.118 0.038 0.233 0.080 0.354 0.113 0.175 0.049 0.355 0.087 0.535 0.126 0.116 0.026 0.23 0.056 0.348 0.078 0.201 0.037 0.408 0.061 0.614 0.085 0.102 0.012 0.201 0.031 0.305 0.040 0.312 0.028 0.628 0.043 0.95 0.043s0.639-0.016 0.95-0.043c0.104-0.009 0.204-0.028 0.306-0.040 0.206-0.025 0.412-0.049 0.612-0.085 0.119-0.021 0.234-0.052 0.352-0.078 0.178-0.040 0.357-0.077 0.53-0.126 0.122-0.034 0.24-0.076 0.359-0.115 0.163-0.052 0.325-0.104 0.483-0.164 0.12-0.046 0.235-0.099 0.352-0.149 0.151-0.065 0.301-0.13 0.448-0.202 0.115-0.057 0.226-0.119 0.338-0.181 0.14-0.077 0.279-0.154 0.414-0.238 0.109-0.068 0.215-0.14 0.321-0.212 0.129-0.088 0.257-0.178 0.382-0.272 0.102-0.077 0.2-0.158 0.298-0.239 0.065-0.055 0.136-0.104 0.2-0.161l-1.117 8.597z"></path>
            <path d="M12.187 8.31c0.071-0.065 0.149-0.118 0.233-0.158 0.242 0.18 0.384 0.463 0.384 0.827 0 1.792 1.457 3.249 3.247 3.249 1.792 0 3.249-1.458 3.249-3.316 0-0.317 0.157-0.608 0.421-0.786 0.106 0.043 0.225 0.113 0.351 0.23 0.602 0.553 1.383 0.858 2.199 0.858 0.906 0 1.778-0.382 2.392-1.049 0.588-0.638 0.892-1.467 0.855-2.334s-0.408-1.668-1.053-2.255c-0.053-0.082-0.224-0.459-0.208-1.881l0.001-1.28h-15.262l-1.152 0.087 0.002 1.152c0.002 1.284-0.083 1.772-0.147 1.958-0.615 0.583-0.972 1.369-1.007 2.219-0.036 0.866 0.267 1.695 0.855 2.334 1.167 1.267 3.268 1.409 4.64 0.145zM9.345 5.222c0.524-0.481 0.719-1.289 0.778-2.508h11.858c0.065 0.998 0.286 1.956 0.936 2.554 0.186 0.171 0.294 0.405 0.305 0.659s-0.078 0.495-0.249 0.68c-0.344 0.374-0.912 0.455-1.392 0.009-0.538-0.493-1.207-0.785-1.934-0.844l-0.344-0.027-0.303 0.165c-0.108 0.060-0.217 0.115-0.328 0.168l-0.099 0.053c-0.985 0.595-1.573 1.634-1.573 2.847 0 0.523-0.426 0.949-0.949 0.949-0.522 0-0.947-0.426-0.947-1.017 0-1.147-0.588-2.186-1.574-2.781l-0.099-0.053c-0.108-0.052-0.215-0.106-0.32-0.163l-0.321-0.171-0.361 0.044c-0.674 0.082-1.295 0.369-1.849 0.877-0.373 0.345-0.997 0.317-1.341-0.056-0.171-0.186-0.26-0.428-0.25-0.681s0.119-0.487 0.356-0.704z"></path>
        </symbol>

    </defs>
</svg>
