<svg xmlns="http://www.w3.org/2000/svg" width="198.425" height="151.993">
    <path d="M2.879 76.388l28.739-13.352v6.348l-21.734 9.52v.12l21.734 9.52v6.347L2.879 81.538v-5.15zM144.565 97.284l12.813-43.408h6.048l-12.813 43.408h-6.048zM195.636 81.717L166.897 94.89v-6.347l22.212-9.52v-.12l-22.212-9.52v-6.348l28.738 13.174v5.508zM63.437 25.118l-3.169 2.372-1.999-2.671c-.791-1.057-1.179-1.82-2.844-.618-1.592 1.237-.999 1.846-.208 2.902l1.252 1.673c.791 1.056 1.156 1.79 2.947.45l.021.029c2.538-1.81 5.317-2.378 8.195 1.466l1.8 2.407c2.878 3.844 1.548 6.351-.88 8.306l-.293.22c-2.53 1.757-5.339 2.348-8.216-1.496l-2.021-2.7 3.168-2.372 2.021 2.699c.769 1.027 1.164 1.738 2.822.589 1.6-1.287.999-1.845.23-2.873l-1.801-2.406c-.791-1.057-1.179-1.819-2.969-.479-2.539 1.809-5.317 2.378-8.195-1.467l-1.252-1.673c-2.899-3.874-1.54-6.402.858-8.335l.294-.22c2.56-1.779 5.339-2.348 8.238 1.526l2.001 2.671zM72.084 10.929l3.719-1.357 8.793 24.065-3.718 1.359-3.875-10.604-2.341.855 3.874 10.604-3.787 1.384-8.792-24.065 3.787-1.385 3.561 9.743 2.341-.855-3.562-9.744zM95.704 7.127l6.614 25.516-4.105.068-4.386-17.049-3.897 17.185-4.104.067 5.773-25.72 4.105-.067zM112.839 26.758c.419-1.25.827-2.002-1.294-2.714l-.695-.233-3.591 10.704-3.753-1.259 8.149-24.292 4.137 1.387c3.127 1.05 5.418 2.978 3.81 7.772l-.666 1.982c-.546 1.633-1.257 2.71-2.068 3.404.393 1.136.401 2.607-.239 4.52l-1.587 4.727c-.583 1.737-.71 1.772-.831 4.09l-3.787-1.271c-.124-2.052.049-1.762.83-4.09l1.585-4.727zm-.348-6.573c2.085.7 2.202-.111 2.623-1.361l.664-1.981c.431-1.286.838-2.039-1.246-2.738l-.383-.127-2.041 6.081.383.126zM130.831 16.828l3.228 2.356-7.328 10.036 10.378-7.81 3.315 2.421-21.326 16.154-3.374-2.464 15.107-20.693zm-1.077 17.142l-3.877 10.967-3.345-2.442 1.492-4.221 5.73-4.304z" />
    <g>
        <path d="M70.712 125.174l-3.326-2.146 1.808-2.803c.715-1.108 1.296-1.738-.41-2.882-1.713-1.062-2.078-.294-2.793.814l-1.133 1.756c-.716 1.109-1.276 1.706.603 2.919l-.02.031c2.578 1.751 4.078 4.158 1.475 8.193l-1.629 2.526c-2.603 4.033-5.415 3.66-8.093 2.063l-.308-.199c-2.528-1.762-4.059-4.189-1.456-8.224l1.829-2.834 3.326 2.146-1.828 2.835c-.696 1.078-1.226 1.695.429 2.849 1.765 1.053 2.079.295 2.774-.783l1.63-2.525c.715-1.108 1.295-1.737-.583-2.949-2.579-1.751-4.079-4.159-1.475-8.194l1.133-1.755c2.624-4.066 5.466-3.672 8.112-2.094l.308.198c2.558 1.781 4.058 4.188 1.436 8.255l-1.809 2.803zM75.729 117.203l3.816 1.181-3.677 11.871 7.285-10.754 3.921 1.216-14.936 22.197-3.991-1.236 7.582-24.475zm4.539 16.564l-.111 11.631-3.957-1.226.043-4.476 4.025-5.929zM88.517 120.632l4.013.386-2.453 25.505-4.014-.387 2.454-25.504zM93.502 121.316l3.981-.348 1.707 19.535-3.98.35-1.708-19.537zm12.329 20.669l.345 3.942-10.443.913-.345-3.943 10.443-.912zM104.176 120.358l3.779-1.295 6.361 18.551-3.78 1.295-6.36-18.551zm16.943 17.094l1.283 3.744-9.918 3.399-1.282-3.744 9.917-3.399zM129.243 118.429l-3.302 2.184-1.839-2.782c-.729-1.102-1.072-1.885-2.804-.783-1.663 1.142-1.105 1.785-.377 2.885l1.152 1.744c.727 1.101 1.049 1.854 2.915.621l.021.03c2.638-1.657 5.446-2.063 8.094 1.942l1.66 2.507c2.647 4.005 1.174 6.43-1.364 8.24l-.305.203c-2.631 1.606-5.468 2.032-8.117-1.974l-1.858-2.813 3.302-2.184 1.858 2.813c.709 1.07 1.062 1.804 2.784.753 1.671-1.193 1.105-1.785.396-2.855l-1.658-2.507c-.729-1.102-1.069-1.886-2.936-.651-2.64 1.657-5.447 2.063-8.097-1.942l-1.15-1.743c-2.671-4.036-1.165-6.481 1.343-8.271l.305-.203c2.659-1.626 5.468-2.033 8.137 2.004l1.84 2.782z" />
    </g>
    <path d="M140.725 74.563c-1.671-.894-1.903-1.053-3.6-1.893a84.979 84.979 0 00-4.693-2.134 71.11 71.11 0 00-4.375-1.683 107.955 107.955 0 00-5.195-1.649 73.968 73.968 0 00-5.458-1.358 118.359 118.359 0 00-6.348-1.125c-2.01-.307-4.033-.515-6.058-.689-2.569-.224-5.144-.367-7.716-.54a18.045 18.045 0 01-1.991-.223c-.055-.133-.122-.252-.156-.381-.354-1.264-.846-2.474-1.377-3.672-.817-1.849-1.834-3.58-2.972-5.242a33.481 33.481 0 00-3.048-3.786 24.619 24.619 0 00-3.92-3.426 17.546 17.546 0 00-3.058-1.721c-.883-.389-1.812-.612-2.738-.851a.494.494 0 00-.174-.02c-.087.011-.171.04-.285.068.033.131.054.224.08.314.148.507.29 1.015.448 1.518.491 1.555.717 3.161.93 4.769.365 2.762.364 5.535.224 8.313-.065 1.307-.112 2.615-.16 3.925-.008.214.007.431.036.643.036.259.173.388.428.392.194.006.389-.024.583-.048.954-.117 1.909-.166 2.867-.069.071.008.161-.004.203.135-.045.032-.094.089-.155.108-1.135.362-2.271.721-3.406 1.078-1.158.364-2.283.793-3.346 1.395-1.105.626-2.248 1.184-3.375 1.768-.954.495-1.91.985-2.863 1.482-.676.352-1.346.714-2.02 1.068-.778.409-1.552.825-2.338 1.218-.959.479-.675.503-1.735.064-.613-.253-1.201-.566-1.802-.85-.067-.031-.145-.042-.212-.06-.19.295-.349.588-.55.847-.42.54-.899 1.031-1.419 1.478-1.368 1.173-2.815 2.229-4.409 3.083-.712.382-1.463.65-2.23.882-.222.068-.461.083-.694.108-.346.037-.669-.042-.931-.272a8.159 8.159 0 01-.834-.818c-.604-.719-1.123-1.5-1.619-2.297-.598-.963-1.237-1.899-1.818-2.871-.922-1.541-1.905-3.042-2.899-4.536a31.96 31.96 0 00-1.399-1.953c-.998-1.277-2.017-2.537-3.205-3.65-1.049-.982-2.177-1.844-3.495-2.43a6.435 6.435 0 00-2.321-.567c-.065-.004-.132.044-.21.072.038.085.048.149.086.187.727.736 1.445 1.482 2.075 2.304a68.34 68.34 0 011.795 2.459c.379.545.725 1.113 1.06 1.688.325.557.635 1.124.92 1.701.586 1.191 1.129 2.403 1.579 3.656.423 1.177.813 2.365 1.11 3.579.228.929.4 1.872.589 2.81.049.239.131.441.337.594.518.383 1.029.775 1.543 1.164.67.505 1.344 1.007 2.011 1.519.065.05.095.148.145.23-.08.052-.124.1-.176.112-.832.216-1.663.437-2.5.633-.359.084-.731.113-1.097.17-.254.037-.338.113-.394.357-.014.057-.018.115-.029.174-.234 1.348-.496 2.689-.86 4.011-.369 1.338-.721 2.678-1.204 3.981-.441 1.192-.904 2.373-1.529 3.484-.044.077-.059.173-.095.283.254.098.458-.001.648-.071 1.479-.536 2.866-1.247 4.117-2.204 1.822-1.394 3.247-3.146 4.553-5.01.48-.687.946-1.388 1.521-2.005.393-.422.837-.652 1.442-.636 1.803.05 3.589.273 5.361.56 1.619.262 3.229.6 4.804 1.075 1.121.341 2.245.673 3.36 1.034.384.123.775.254 1.141.483.052.779-.138 1.554-.035 2.37.211-.056.379-.094.544-.144.766-.235 1.533-.467 2.294-.715a.934.934 0 01.624.005c1.277.428 2.558.843 3.837 1.266.204.066.404.144.603.228.064.027.113.092.196.163-.1.076-.168.145-.249.189-.783.442-1.571.872-2.351 1.319a679.618 679.618 0 00-4.313 2.488c-.185.106-.34.263-.524.371-.637.381-1.277.754-1.921 1.122-1.309.745-2.505 1.659-3.758 2.49-.374.246-.752.487-1.117.747-.542.384-1.077.776-1.607 1.176-.295.224-.576.465-.86.703-.179.148-.342.318-.528.459-.767.581-1.437 1.264-2.062 1.99-.07.081-.106.193-.16.295.068.023.109.054.139.046.543-.159 1.097-.291 1.622-.496.346-.134.684-.277 1.042-.376a8.328 8.328 0 001-.336c.848-.349 1.753-.554 2.563-.999.068-.038.145-.058.219-.086.915-.341 1.829-.685 2.747-1.02.532-.195 1.072-.364 1.601-.566.748-.285 1.487-.592 2.232-.889.199-.079.398-.161.6-.233.479-.169.956-.337 1.398-.596.132-.075.292-.105.441-.151.148-.045.305-.068.448-.125.836-.33 1.666-.673 2.503-.998 1.258-.486 2.519-.961 3.779-1.438.604-.228 1.205-.46 1.815-.669.997-.343 2.004-.657 3.001-1.002.888-.306 1.798-.529 2.716-.724a4.726 4.726 0 011.515-.065c.875.093 1.75.176 2.628.237 1.598.115 3.198.21 4.797.314 1.193.076 2.386.156 3.578.232.063.394.321 1.797.946 2.655.733 1.006 1.344 1.494 1.344 1.494s1.711-.636 2.322-2.028c.371-.849.561-1.487.653-1.861 1.112.046 2.225.101 3.337.138.808.026 3.931-.121 6.596-.498 1.231-.223 2.468-.407 3.684-.711 1.707-.426 3.393-.914 5.037-1.543a43.85 43.85 0 003.81-1.673c.097-.048.187-.115.326-.204a1.481 1.481 0 00-.688-.043 40.511 40.511 0 01-3.564.283c-.604.023-1.209.032-1.812.027l1.843-1.913 2.175 1.618 1.329-2.16 2.629 1.218 1.109-2.278 2.098.983.956-2.225a30.083 30.083 0 004.957-2.887 33.558 33.558 0 003.521-2.911c.921-.874.764-.689 1.605-1.639.1-.111 1.533-1.516-.715-2.66zm-52.094 8.723c.05 1.342.192 2.679.293 4.009-.133.079-.201.008-.258-.072a7.883 7.883 0 01-1-1.914 11.642 11.642 0 01-.67-5.122c.137-1.474.533-2.873 1.235-4.18.129-.239.289-.463.443-.688.039-.056.111-.088.284-.219-.118 1.475-.268 2.81-.322 4.15a52.229 52.229 0 00-.005 4.036zm2.95 2.71c.049.623.11 1.245.16 1.868.013.17.001.343.001.58-.106-.073-.186-.099-.216-.152-.19-.341-.395-.677-.548-1.033-.872-2.045-1.232-4.189-1.193-6.403.03-1.632.302-3.23.813-4.777.22-.664.473-1.325.861-1.919.051-.078.114-.15.229-.303.114.313.059.523.043.731-.11 1.597-.233 3.193-.328 4.791-.131 2.209.004 4.415.178 6.617zm3.114-3.014c.057 1.991.226 3.975.434 5.957.019.188.087.38-.053.653a5.144 5.144 0 01-.594-.948c-.734-1.564-1.255-3.193-1.472-4.915-.146-1.165-.262-2.329-.22-3.505.068-1.901.326-3.774.946-5.578.319-.921.713-1.817 1.269-2.63.028-.042.085-.067.12-.095.125.03.108.119.1.191-.104 1.029-.226 2.058-.316 3.088-.141 1.575-.252 3.151-.224 4.737.018 1.015-.018 2.031.01 3.045zm18.639-8.91c.375-.518.842-.923 1.814-1.054.886.853 1.79 1.714 2.684 2.585.318.311.489.689.281 1.13-.479 1.015-1.228 1.71-2.392 1.758-1.142.047-2.027-.485-2.579-1.478-.555-.998-.488-2.006.192-2.941zm.927 14.87c-1.508-.306-2.941-.795-4.276-1.553-.425-.24-.813-.54-1.214-.819-.066-.049-.163-.115-.095-.236.859.184 1.711.388 2.571.544.067.013.135.023.202.035l-.02.011 1.192 1.124 1.471-.69 1.678 1.156 1.167-.887 1.954 1.783c-1.551-.027-3.096-.156-4.63-.468z" />
    <path d="M116.026 76.729c.388-.001.729-.391.721-.862-.005-.366-.121-.687-.534-.781-.501-.114-1.049.237-1.101.698-.049.446.431.945.914.945z" />
</svg>